<svg xmlns="http://www.w3.org/2000/svg" width="18.38" height="18" viewBox="0 0 18.38 18">
  <g id="noun_Sliders_341315" transform="translate(-31.333 -31.894)">
    <g id="Group_24" data-name="Group 24" transform="translate(31.333 31.894)">
      <g id="Group_21" data-name="Group 21" transform="translate(0 11.393)">
        <rect id="Rectangle_29" data-name="Rectangle 29" width="12" height="1" transform="translate(0 2.607)" fill="#f2932e"/>
        <rect id="Rectangle_30" data-name="Rectangle 30" width="3" height="1" transform="translate(15.38 2.607)" fill="#f2932e"/>
        <path id="Path_12" data-name="Path 12" d="M322.643,325.265a1.332,1.332,0,0,1-1.322,1.342h0A1.332,1.332,0,0,1,320,325.265v-3.923A1.332,1.332,0,0,1,321.321,320h0a1.332,1.332,0,0,1,1.322,1.342Z" transform="translate(-308.077 -320)" fill="#f2932e"/>
      </g>
      <g id="Group_22" data-name="Group 22" transform="translate(0 5.747)">
        <rect id="Rectangle_31" data-name="Rectangle 31" width="4" height="1" transform="translate(0 2.554)" fill="#f2932e"/>
        <rect id="Rectangle_32" data-name="Rectangle 32" width="11" height="1" transform="translate(7.38 2.554)" fill="#f2932e"/>
        <path id="Path_13" data-name="Path 13" d="M130.643,181.265a1.332,1.332,0,0,1-1.321,1.342h0A1.332,1.332,0,0,1,128,181.265v-3.923A1.332,1.332,0,0,1,129.322,176h0a1.332,1.332,0,0,1,1.321,1.342Z" transform="translate(-123.706 -176)" fill="#f2932e"/>
      </g>
      <g id="Group_25" data-name="Group 25" transform="translate(0 0)">
        <path id="Path_14" data-name="Path 14" d="M0,0H10V1H0Z" transform="translate(0 2.607)" fill="#f2932e"/>
        <path id="Path_15" data-name="Path 15" d="M-2,0H3V1H-2Z" transform="translate(15.38 2.607)" fill="#f2932e"/>
        <path id="Path_12-2" data-name="Path 12" d="M322.643,325.265a1.332,1.332,0,0,1-1.322,1.342h0A1.332,1.332,0,0,1,320,325.265v-3.923A1.332,1.332,0,0,1,321.321,320h0a1.332,1.332,0,0,1,1.322,1.342Z" transform="translate(-310.002 -320)" fill="#f2932e"/>
      </g>
    </g>
  </g>
</svg>
