<svg xmlns="http://www.w3.org/2000/svg" width="23" height="23" viewBox="0 0 23 23">
  <defs>
    <style>
      .cls-1 {
        fill: #564f42;
      }
    </style>
  </defs>
  <path id="dice-five-solid" class="cls-1" d="M19.714,32H3.286A3.285,3.285,0,0,0,0,35.286V51.714A3.285,3.285,0,0,0,3.286,55H19.714A3.285,3.285,0,0,0,23,51.714V35.286A3.285,3.285,0,0,0,19.714,32ZM6.571,50.071a1.643,1.643,0,1,1,1.643-1.643A1.643,1.643,0,0,1,6.571,50.071Zm0-9.857a1.643,1.643,0,1,1,1.643-1.643A1.643,1.643,0,0,1,6.571,40.214ZM11.5,45.143A1.643,1.643,0,1,1,13.143,43.5,1.643,1.643,0,0,1,11.5,45.143Zm4.929,4.929a1.643,1.643,0,1,1,1.643-1.643A1.643,1.643,0,0,1,16.429,50.071Zm0-9.857a1.643,1.643,0,1,1,1.643-1.643A1.643,1.643,0,0,1,16.429,40.214Z" transform="translate(0 -32)"/>
</svg>
