<svg xmlns="http://www.w3.org/2000/svg" width="23" height="20.444" viewBox="0 0 23 20.444">
  <defs>
    <style>
      .cls-1 {
        fill: #564f42;
      }
    </style>
  </defs>
  <path id="trophy-solid" class="cls-1" d="M22.042,2.556H17.889V.958A.956.956,0,0,0,16.931,0H6.069a.956.956,0,0,0-.958.958v1.6H.958A.956.956,0,0,0,0,3.514V5.75A5.211,5.211,0,0,0,2.472,9.771a9.355,9.355,0,0,0,4.392,1.665,8.833,8.833,0,0,0,2.719,2.939V17.25H7.667a2.3,2.3,0,0,0-2.556,2.236v.479a.481.481,0,0,0,.479.479H17.41a.481.481,0,0,0,.479-.479v-.479a2.3,2.3,0,0,0-2.556-2.236H13.417V14.375a8.833,8.833,0,0,0,2.719-2.939,9.322,9.322,0,0,0,4.392-1.665A5.222,5.222,0,0,0,23,5.75V3.514A.956.956,0,0,0,22.042,2.556ZM3.965,7.7A2.937,2.937,0,0,1,2.556,5.75V5.111H5.119A14.342,14.342,0,0,0,5.63,8.553,6.435,6.435,0,0,1,3.965,7.7ZM20.444,5.75A3.068,3.068,0,0,1,19.035,7.7a6.46,6.46,0,0,1-1.669.855,14.342,14.342,0,0,0,.511-3.442h2.568Z"/>
</svg>
