<svg xmlns="http://www.w3.org/2000/svg" width="18.078" height="18.4" viewBox="0 0 18.078 18.4">
  <defs>
    <style>
      .cls-1, .cls-3 {
        fill: #f2932e;
      }

      .cls-2, .cls-3 {
        stroke: none;
      }
    </style>
  </defs>
  <g id="noun_Settings_1271909" transform="translate(0.201 0.2)">
    <g id="Path_17" data-name="Path 17" class="cls-1" transform="translate(-7.34 -6.53)">
      <path class="cls-2" d="M 17.88382530212402 24.62997055053711 L 17.8836555480957 24.62997055053711 L 17.88059616088867 24.62997055053711 L 14.3451452255249 24.62997055053711 C 13.89344596862793 24.61738967895508 13.51000595092773 24.2874698638916 13.43061542510986 23.8454704284668 L 13.42950534820557 23.83929061889648 L 13.42917537689209 23.83303070068359 C 13.42835998535156 23.81758689880371 13.42824554443359 23.80211448669434 13.42883110046387 23.78666305541992 L 13.25031852722168 21.83305931091309 C 12.85523319244385 21.64648628234863 12.47417163848877 21.42549896240234 12.11604499816895 21.17525291442871 L 10.35618591308594 21.97792816162109 C 10.2255220413208 22.05338668823242 10.07687282562256 22.0932502746582 9.925925254821777 22.0932502746582 C 9.834625244140625 22.0932502746582 9.744325637817383 22.07880020141602 9.65755558013916 22.05030059814453 C 9.440255165100098 21.9766788482666 9.257035255432129 21.82797050476074 9.140765190124512 21.63125991821289 L 7.371455669403076 18.58572959899902 C 7.123805522918701 18.16647911071777 7.232295513153076 17.63098907470703 7.624175548553467 17.34075927734375 L 9.318065643310547 16.19259834289551 C 9.259716987609863 15.75347900390625 9.259783744812012 15.30911159515381 9.318264961242676 14.87000370025635 L 7.723145484924316 13.73693943023682 C 7.318865776062012 13.44721984863281 7.204455375671387 12.90602970123291 7.456685543060303 12.47784996032715 L 9.219215393066406 9.460209846496582 C 9.388785362243652 9.173439979553223 9.700645446777344 8.995570182800293 10.03335571289063 8.995570182800293 C 10.15145015716553 8.995570182800293 10.26703357696533 9.017436981201172 10.37722206115723 9.060589790344238 L 10.39832592010498 9.060589790344238 L 10.4181957244873 9.069719314575195 L 12.18222999572754 9.880328178405762 C 12.54125499725342 9.627470016479492 12.92514705657959 9.407621383666992 13.32496643066406 9.225906372070313 L 13.50194549560547 7.283169746398926 C 13.54029560089111 6.805209636688232 13.9468355178833 6.429979801177979 14.42737579345703 6.429979801177979 L 17.97206497192383 6.429979801177979 C 18.42376518249512 6.442579746246338 18.80720520019531 6.772489547729492 18.88659477233887 7.214489936828613 L 18.88817596435547 7.223259925842285 L 18.88817596435547 7.232169628143311 L 18.88817596435547 7.271207809448242 L 19.06486892700195 9.226861000061035 C 19.45974540710449 9.412858963012695 19.84078598022461 9.633205413818359 20.19899940490723 9.88267993927002 L 21.95963859558105 9.079649925231934 C 22.09096908569336 9.006293296813965 22.23975944519043 8.96753978729248 22.39024543762207 8.96753978729248 C 22.47500610351563 8.96753978729248 22.5592155456543 8.979729652404785 22.64051628112793 9.003759384155273 C 22.86772918701172 9.070910453796387 23.06111717224121 9.22950267791748 23.17149543762207 9.439099311828613 L 24.98451614379883 12.47735977172852 C 25.23371505737305 12.90032958984375 25.12325477600098 13.43767929077148 24.72787475585938 13.72775936126709 L 23.11913299560547 14.86796855926514 C 23.17895889282227 15.3138427734375 23.17885398864746 15.76501750946045 23.11882019042969 16.21088218688965 L 24.60297584533691 17.3415699005127 C 24.99620628356934 17.63131904602051 25.10566520690918 18.16865921020508 24.85631561279297 18.59051895141602 L 23.09810638427734 21.61611938476563 C 22.9277458190918 21.90105056762695 22.61679649353027 22.07737922668457 22.28596496582031 22.07737922668457 C 22.16538619995117 22.07737922668457 22.04757690429688 22.05463027954102 21.93543815612793 22.00971984863281 L 21.91469573974609 22.00971984863281 L 21.894775390625 22.00053977966309 L 20.12244987487793 21.18377494812012 C 19.7652702331543 21.43484115600586 19.38346481323242 21.65330505371094 18.98604202270508 21.83403587341309 L 18.80905532836914 23.77885055541992 C 18.76958465576172 24.25576019287109 18.36314582824707 24.62997055053711 17.88382530212402 24.62997055053711 Z M 14.4325647354126 23.6035099029541 L 17.78556251525879 23.6035099029541 L 17.98434638977051 21.44278907775879 C 18.00099563598633 21.25475883483887 18.11922645568848 21.09119987487793 18.29287528991699 21.01629066467285 C 18.81093597412109 20.8073902130127 19.29483604431152 20.52842903137207 19.73332595825195 20.18622970581055 C 19.82315635681152 20.11272048950195 19.9388256072998 20.07143974304199 20.05723571777344 20.07143974304199 C 20.13168525695801 20.07143974304199 20.20377540588379 20.08719062805176 20.27150535583496 20.11824035644531 L 22.24703788757324 21.0277099609375 L 23.94047927856445 18.12863349914551 L 22.25340461730957 16.85677909851074 C 22.09978485107422 16.74231910705566 22.02293586730957 16.55314064025879 22.05330467224121 16.3634204864502 C 22.09939575195313 16.08901023864746 22.12541580200195 15.80959987640381 22.13077545166016 15.53218936920166 C 22.12614631652832 15.25768947601318 22.10080528259277 14.97758007049561 22.05545616149902 14.70324993133545 C 22.02800559997559 14.50996971130371 22.10880470275879 14.32178020477295 22.26595497131348 14.20985984802246 L 24.05701446533203 12.95051956176758 L 22.33163833618164 10.04921245574951 L 20.35860633850098 10.95617008209229 C 20.29129600524902 10.98602962493896 20.22114562988281 11.00089931488037 20.14889526367188 11.00089931488037 C 20.03800582885742 11.00089931488037 19.93226623535156 10.96605968475342 19.84311485290527 10.90014934539795 C 19.39433479309082 10.5603199005127 18.9052562713623 10.27662944793701 18.38853645324707 10.05624961853027 C 18.21450614929199 9.981189727783203 18.09627532958984 9.817639350891113 18.0795955657959 9.629249572753906 L 17.87824440002441 7.462669849395752 L 14.52543830871582 7.462669849395752 L 14.32665538787842 9.623379707336426 C 14.31000518798828 9.811409950256348 14.19177532196045 9.974969863891602 14.01812553405762 10.049880027771 C 13.49999523162842 10.25869941711426 13.01610565185547 10.5376501083374 12.57768535614014 10.87992000579834 C 12.48783588409424 10.95345020294189 12.3721752166748 10.99472999572754 12.25377559661865 10.99472999572754 C 12.1793155670166 10.99472999572754 12.10721588134766 10.97898006439209 12.03948593139648 10.94791984558105 L 10.06410980224609 10.03853607177734 L 8.379502296447754 12.93605995178223 L 10.16929531097412 14.20983982086182 C 10.32746601104736 14.32229995727539 10.4082555770874 14.51146984100342 10.38010597229004 14.70350933074951 C 10.33382511138916 14.97922992706299 10.30780601501465 15.25863933563232 10.30243587493896 15.53604984283447 C 10.30852603912354 15.80381965637207 10.33454513549805 16.07774925231934 10.37977600097656 16.34603881835938 C 10.41437530517578 16.5446605682373 10.32859516143799 16.74651908874512 10.16112518310547 16.85976982116699 L 8.297345161437988 18.13023948669434 L 9.994403839111328 21.02706909179688 L 11.96689510345459 20.12035942077637 C 12.03420543670654 20.09049034118652 12.10435581207275 20.07562065124512 12.17661571502686 20.07562065124512 C 12.28750514984131 20.07562065124512 12.39324569702148 20.11046981811523 12.48238563537598 20.1763801574707 C 12.93120574951172 20.51531982421875 13.42029571533203 20.79833030700684 13.9368953704834 21.01815986633301 C 14.10427570343018 21.09806060791016 14.21560573577881 21.25865936279297 14.23141574859619 21.43907928466797 L 14.4325647354126 23.6035099029541 Z"/>
      <path class="cls-3" d="M 17.88382339477539 24.52997398376465 C 18.31472778320313 24.52997398376465 18.67389297485352 24.19954299926758 18.70946502685547 23.76979064941406 L 18.89174652099609 21.76679992675781 C 19.32096481323242 21.57595062255859 19.729736328125 21.34206962585449 20.11177635192871 21.06875038146973 L 21.93662643432617 21.90971946716309 L 21.95526504516602 21.90971946716309 C 22.06279945373535 21.95550537109375 22.17515563964844 21.97738265991211 22.28596687316895 21.97738265991211 C 22.57558631896973 21.97738265991211 22.85488510131836 21.82804298400879 23.01164627075195 21.56587982177734 L 24.77022552490234 18.53964042663574 C 24.99251556396484 18.16357040405273 24.89406585693359 17.68026924133301 24.5423755645752 17.42111968994141 L 23.01164627075195 16.25494956970215 C 23.08130645751953 15.77968978881836 23.08130645751953 15.29683017730713 23.01164627075195 14.8215799331665 L 24.66872596740723 13.64713001251221 C 25.0211353302002 13.38857936859131 25.12050628662109 12.90517997741699 24.89864540100098 12.52859973907471 L 23.08414649963379 9.487859725952148 C 22.98590469360352 9.299869537353516 22.81558609008789 9.15977954864502 22.6121654510498 9.09965991973877 C 22.53943824768066 9.078160285949707 22.46470069885254 9.06754207611084 22.39024925231934 9.06754207611084 C 22.2564697265625 9.06754207611084 22.12361145019531 9.101826667785645 22.00497627258301 9.168879508972168 L 20.18840599060059 9.997419357299805 C 19.80477523803711 9.725969314575195 19.3970947265625 9.490229606628418 18.97045516967773 9.293159484863281 L 18.78817558288574 7.275669574737549 C 18.78817558288574 7.261169910430908 18.78817558288574 7.246669769287109 18.78817558288574 7.232169628143311 C 18.71672630310059 6.834389686584473 18.37605476379395 6.541279792785645 17.97206497192383 6.529979705810547 L 14.4300651550293 6.529979705810547 C 14.4291934967041 6.529976844787598 14.42824935913086 6.529975414276123 14.42737770080566 6.529975414276123 C 13.99563980102539 6.529975414276123 13.63609600067139 6.861588954925537 13.60153579711914 7.292239665985107 L 13.41925525665283 9.293159484863281 C 12.98770523071289 9.484939575195313 12.57683563232422 9.720210075378418 12.19301509857178 9.995339393615723 L 10.37644577026367 9.160590171813965 L 10.3578052520752 9.160590171813965 C 10.25211143493652 9.116591453552246 10.1419849395752 9.095571517944336 10.03335571289063 9.095571517944336 C 9.742213249206543 9.095571517944336 9.461743354797363 9.246527671813965 9.30556583404541 9.510649681091309 L 7.542845726013184 12.52859973907471 C 7.318625450134277 12.90923976898193 7.421965599060059 13.39807987213135 7.781055450439453 13.65540981292725 L 9.425695419311523 14.82364940643311 C 9.35727596282959 15.2934398651123 9.35727596282959 15.77065944671631 9.425695419311523 16.24044990539551 L 7.683695793151855 17.42111968994141 C 7.334195613861084 17.67996025085449 7.236725807189941 18.16102981567383 7.457925796508789 18.53549957275391 L 9.226855278015137 21.58037948608398 C 9.331005096435547 21.75658988952637 9.494895935058594 21.88961029052734 9.688765525817871 21.95528984069824 C 9.766131401062012 21.9807014465332 9.84619140625 21.99324798583984 9.925930976867676 21.99324989318848 C 10.05959606170654 21.99325180053711 10.19237518310547 21.9580020904541 10.31016540527344 21.88900947570801 L 12.12673568725586 21.06047058105469 C 12.51022529602051 21.33272933959961 12.91791534423828 21.56916046142578 13.34468555450439 21.76679992675781 L 13.5290355682373 23.7842903137207 C 13.52827548980713 23.79878044128418 13.52827548980713 23.81329917907715 13.5290355682373 23.82778930664063 C 13.60048580169678 24.22557067871094 13.94115543365479 24.51868057250977 14.3451452255249 24.52997016906738 L 17.88093566894531 24.52997016906738 C 17.88188552856445 24.52997207641602 17.88287353515625 24.52997398376465 17.88382339477539 24.52997398376465 M 12.17661285400391 20.17562484741211 C 12.11967945098877 20.17562484741211 12.06246662139893 20.18735122680664 12.00866603851318 20.21121978759766 L 9.953895568847656 21.1557502746582 L 8.17253589630127 18.11501884460449 C 8.17253589630127 18.11501884460449 8.179196357727051 18.0933780670166 8.174604415893555 18.0933780670166 C 8.17415714263916 18.0933780670166 8.173602104187012 18.09358406066895 8.172924041748047 18.09403419494629 L 8.172784805297852 18.09412956237793 C 8.172703742980957 18.09418678283691 8.17262077331543 18.09424591064453 8.17253589630127 18.09430885314941 L 8.17253589630127 18.09429931640625 L 8.172784805297852 18.09412956237793 C 8.172832489013672 18.09409713745117 8.172878265380859 18.09406471252441 8.172924041748047 18.09403419494629 L 10.10510540008545 16.77692985534668 C 10.24023532867432 16.68555068969727 10.30916595458984 16.52336883544922 10.28116512298584 16.3626594543457 C 10.2349853515625 16.0887393951416 10.20867538452148 15.81184005737305 10.20245552062988 15.53411960601807 C 10.20793533325195 15.25086975097656 10.23424530029297 14.96840000152588 10.28116512298584 14.68900966644287 C 10.30372524261475 14.53506946563721 10.23811531066895 14.3814697265625 10.11131572723389 14.29130935668945 L 8.271955490112305 12.98221969604492 C 8.261045455932617 12.97402954101563 8.255485534667969 12.96051979064941 8.257465362548828 12.9470100402832 L 10.01810550689697 9.918709754943848 C 10.02219581604004 9.91777515411377 10.02636337280273 9.917306900024414 10.03053188323975 9.917306900024414 C 10.03470039367676 9.917306900024414 10.0388708114624 9.91777515411377 10.04296588897705 9.918709754943848 L 12.0811653137207 10.85701942443848 C 12.13635540008545 10.88232707977295 12.19525241851807 10.89472579956055 12.25377178192139 10.89472579956055 C 12.34770679473877 10.89472579956055 12.44071006774902 10.86280727386475 12.51614570617676 10.80109977722168 C 12.96183586120605 10.45315933227539 13.45407581329346 10.16938972473145 13.978515625 9.958059310913086 C 14.11822509765625 9.89778995513916 14.21365547180176 9.765779495239258 14.22707557678223 9.614219665527344 L 14.4342155456543 7.362669944763184 L 17.95550537109375 7.362669944763184 C 17.96348571777344 7.370699882507324 17.96920585632324 7.380709648132324 17.97207641601563 7.391669750213623 L 18.1792049407959 9.620429992675781 C 18.19262504577637 9.771999359130859 18.28805541992188 9.904009819030762 18.42776489257813 9.964269638061523 C 18.95249557495117 10.18805980682373 19.44778633117676 10.47535991668701 19.90256500244141 10.81973934173584 C 19.9750804901123 10.87335205078125 20.06165504455566 10.90089797973633 20.14889335632324 10.90089797973633 C 20.2058277130127 10.90089797973633 20.26303482055664 10.88917350769043 20.31683540344238 10.865309715271 L 22.37160491943359 9.920780181884766 L 24.17989540100098 12.96150970458984 C 24.18145561218262 12.96971988677979 24.18145561218262 12.97815990447998 24.17988586425781 12.98637008666992 L 22.32396507263184 14.29130935668945 C 22.19788551330566 14.38109970092773 22.13237571716309 14.53368949890137 22.15411567687988 14.68694019317627 C 22.20042610168457 14.96706962585449 22.22603607177734 15.25022983551025 22.23075485229492 15.53411960601807 C 22.22528648376465 15.81736946105957 22.19897651672363 16.09984016418457 22.15204620361328 16.37923049926758 C 22.12766647338867 16.53153038024902 22.18991470336914 16.68477058410645 22.31360626220703 16.77692985534668 L 24.04732513427734 18.08395004272461 C 24.05823516845703 18.09214019775391 24.06380462646484 18.10564994812012 24.06182479858398 18.11915969848633 L 22.29289627075195 21.14747047424316 L 22.26803588867188 21.14747047424316 L 20.22983551025391 20.20913887023926 C 20.17464256286621 20.18383598327637 20.11575317382813 20.17144012451172 20.05723190307617 20.17144012451172 C 19.96329498291016 20.17144012451172 19.87028121948242 20.20336151123047 19.79484558105469 20.26506996154785 C 19.34910583496094 20.61291885375977 18.85687637329102 20.89669036865234 18.33248519897461 21.10811042785645 C 18.19277572631836 21.16837882995605 18.09734535217285 21.30039024353027 18.08392524719238 21.45195007324219 L 17.87678527832031 23.70351028442383 L 14.35549545288086 23.70351028442383 C 14.34781551361084 23.6960506439209 14.34212589263916 23.68679046630859 14.3389253616333 23.67658042907715 L 14.13179588317871 21.44780921936035 C 14.11900520324707 21.30179023742676 14.02999591827393 21.17338943481445 13.89773559570313 21.11017990112305 C 13.37315559387207 20.88694953918457 12.87787532806396 20.6003589630127 12.42293548583984 20.25679016113281 C 12.35041999816895 20.20317077636719 12.2638521194458 20.17562484741211 12.17661285400391 20.17562484741211 M 17.88382530212402 24.7299690246582 L 17.88093566894531 24.7299690246582 L 14.3451452255249 24.7299690246582 L 14.34235572814941 24.7299690246582 L 14.33955574035645 24.72988891601563 C 13.84356594085693 24.71603012084961 13.41990566253662 24.35150909423828 13.33218574523926 23.86314964294434 L 13.32996559143066 23.85079956054688 L 13.32930564880371 23.83827018737793 C 13.32845973968506 23.82211685180664 13.3282527923584 23.80579948425293 13.32868480682373 23.78956604003906 L 13.15591716766357 21.89883804321289 C 12.79141139984131 21.72343063354492 12.43907165527344 21.51909255981445 12.10581016540527 21.28984069824219 L 10.4018669128418 22.0670108795166 C 10.2570686340332 22.14963150024414 10.0927562713623 22.19325065612793 9.925935745239258 22.19325065612793 C 9.82402515411377 22.19325065612793 9.723225593566895 22.17712020874023 9.626355171203613 22.14529991149902 C 9.385515213012695 22.063720703125 9.18311595916748 21.89943885803223 9.054685592651367 21.6821403503418 L 7.284995555877686 18.6359691619873 C 7.011575698852539 18.17310905456543 7.131495475769043 17.58120918273926 7.564665794372559 17.26039886474609 L 7.568025588989258 17.25790977478027 L 7.57148551940918 17.25555992126465 L 9.211145401000977 16.14425277709961 C 9.161961555480957 15.73643493652344 9.162088394165039 15.32462596893311 9.21151065826416 14.91682815551758 L 7.66523551940918 13.81845951080322 C 7.218245506286621 13.49813938140869 7.091835498809814 12.90018939971924 7.370525360107422 12.42708969116211 L 9.132865905761719 9.40977954864502 C 9.320625305175781 9.092249870300293 9.665465354919434 8.895569801330566 10.03335571289063 8.895569801330566 C 10.15757751464844 8.895569801330566 10.27924060821533 8.917421340942383 10.39563751220703 8.960589408874512 L 10.42019557952881 8.960589408874512 L 10.4599552154541 8.978859901428223 L 12.17194366455078 9.765552520751953 C 12.50641632080078 9.534024238586426 12.86165809631348 9.330561637878418 13.23062705993652 9.159195899963379 L 13.4023551940918 7.274099826812744 C 13.44475555419922 6.745629787445068 13.89507579803467 6.32997989654541 14.42737579345703 6.32997989654541 L 17.97206497192383 6.32997989654541 L 17.9748649597168 6.32997989654541 L 17.9776554107666 6.33005952835083 C 18.47364616394043 6.343929767608643 18.89730644226074 6.708449840545654 18.98502540588379 7.196809768676758 L 18.9881763458252 7.214349746704102 L 18.9881763458252 7.232169628143311 L 18.9881763458252 7.266634941101074 L 19.15933609008789 9.161044120788574 C 19.52360916137695 9.335907936096191 19.87586212158203 9.539608955383301 20.20914077758789 9.768136024475098 L 21.91461372375488 8.990267753601074 C 22.0599193572998 8.909944534301758 22.22416114807129 8.867539405822754 22.39024543762207 8.867539405822754 C 22.48460578918457 8.867539405822754 22.57834625244141 8.881110191345215 22.66886520385742 8.907859802246094 C 22.92086410522461 8.982341766357422 23.1354866027832 9.157853126525879 23.25859642028809 9.389897346496582 L 25.07039642333984 12.42610931396484 C 25.34603500366211 12.89398956298828 25.22397613525391 13.48781967163086 24.78703498840332 13.80838966369629 L 23.22596168518066 14.91481971740723 C 23.27676963806152 15.33065414428711 23.27658462524414 15.75055885314941 23.22538757324219 16.16636276245117 L 24.66357612609863 17.26202964782715 C 25.09699630737305 17.58136940002441 25.21796607971191 18.17519950866699 24.94239616394043 18.64140892028809 L 23.18456649780273 21.6663703918457 C 22.99561500549316 21.98239898681641 22.65177536010742 22.1773796081543 22.28596496582031 22.1773796081543 C 22.15913581848145 22.1773796081543 22.03510475158691 22.15463829040527 21.91664505004883 22.10972023010254 L 21.89275550842285 22.10972023010254 L 21.85291481018066 22.09136009216309 L 20.13261795043945 21.2985725402832 C 19.80001640319824 21.52835273742676 19.4470043182373 21.73037338256836 19.08038711547852 21.90073013305664 L 18.90864562988281 23.78791999816895 C 18.86498641967773 24.31546020507813 18.41476631164551 24.7299690246582 17.88382530212402 24.7299690246582 Z M 14.52370166778564 23.50350952148438 L 17.69433975219727 23.50350952148438 L 17.884765625 21.43362998962402 C 17.90462493896484 21.20931053161621 18.04585647583008 21.01395034790039 18.25326538085938 20.92446899414063 C 18.76489639282227 20.71813011169434 19.24066543579102 20.44384956359863 19.67180633544922 20.10739898681641 C 19.77765464782715 20.0207405090332 19.91581535339355 19.97143936157227 20.05723571777344 19.97143936157227 C 20.14616584777832 19.97143936157227 20.23227500915527 19.99024963378906 20.31317520141602 20.02733039855957 L 22.20644378662109 20.89893913269043 L 23.80928421020508 18.15496253967285 L 22.19320487976074 16.93663024902344 C 22.01007652282715 16.80018043518066 21.91828536987305 16.5742301940918 21.95455551147461 16.34762001037598 C 21.99976539611816 16.07845687866211 22.02529907226563 15.80519580841064 22.03072357177734 15.53385639190674 C 22.02602577209473 15.26183986663818 22.00115013122559 14.98788547515869 21.95679473876953 14.71955966949463 C 21.92373466491699 14.48686981201172 22.02023506164551 14.26208019256592 22.20794486999512 14.12839984893799 L 23.92370414733887 12.92199993133545 L 22.29166412353516 10.17764377593994 L 20.40036582946777 11.04702949523926 C 20.3189754486084 11.08314990997314 20.23519515991211 11.1008996963501 20.14889526367188 11.1008996963501 C 20.01645469665527 11.1008996963501 19.89016532897949 11.05928993225098 19.78367614746094 10.98056983947754 C 19.34048461914063 10.64497947692871 18.8585147857666 10.36540985107422 18.34930610656738 10.1482400894165 C 18.14113616943359 10.05844974517822 17.99990463256836 9.863089561462402 17.9799861907959 9.638070106506348 L 17.78710746765137 7.56266975402832 L 14.61666107177734 7.56266975402832 L 14.42623519897461 9.632539749145508 C 14.40637588500977 9.856860160827637 14.26514530181885 10.05221939086914 14.05773544311523 10.14169979095459 C 13.54603576660156 10.34795951843262 13.07027530670166 10.62222957611084 12.63921546936035 10.95874977111816 C 12.53333568572998 11.04543018341064 12.39518547058105 11.09472942352295 12.25377559661865 11.09472942352295 C 12.16482543945313 11.09472942352295 12.07869529724121 11.07592010498047 11.99779510498047 11.03880977630615 L 10.1048698425293 10.16738224029541 L 8.511812210083008 12.90744113922119 L 10.22728538513184 14.1283597946167 C 10.41616535186768 14.26266956329346 10.51266574859619 14.48862934112549 10.47905540466309 14.71800994873047 C 10.43349361419678 14.98955345153809 10.40796184539795 15.26261901855469 10.40250015258789 15.5337553024292 C 10.40864944458008 15.79954528808594 10.43418312072754 16.06721115112305 10.47838592529297 16.32941055297852 C 10.51964569091797 16.56621932983398 10.41717529296875 16.80734062194824 10.2171459197998 16.94260025024414 L 8.430844306945801 18.16027450561523 L 10.03492164611816 20.89838790893555 L 11.92513561248779 20.02949905395508 C 12.00649547576904 19.99337959289551 12.09029579162598 19.97562026977539 12.17661571502686 19.97562026977539 C 12.30905532836914 19.97562026977539 12.4353551864624 20.01724052429199 12.54183578491211 20.09597015380859 C 12.98496532440186 20.43061065673828 13.46695518493652 20.70950889587402 13.97604560852051 20.92614936828613 L 13.980055809021 20.92784881591797 L 13.98397541046143 20.92972946166992 C 14.17917537689209 21.02301979064941 14.31215572357178 21.2148494720459 14.33103561401367 21.43035888671875 L 14.52370166778564 23.50350952148438 Z"/>
    </g>
    <g id="Path_18" data-name="Path 18" class="cls-1" transform="translate(-29.212 -29.045)">
      <path class="cls-2" d="M38.048,41.278a3.229,3.229,0,1,0-3.229-3.229,3.191,3.191,0,0,0,3.229,3.229Zm0-5.607a2.378,2.378,0,1,1-2.378,2.378,2.353,2.353,0,0,1,2.378-2.378Z"/>
      <path class="cls-3" d="M 38.00944137573242 41.27799224853516 C 37.16383743286133 41.27796173095703 36.35207366943359 40.94216537475586 35.75340270996094 40.34349060058594 C 35.14561080932617 39.73569869995117 34.80876159667969 38.90837097167969 34.81914138793945 38.04887771606445 C 34.81914138793945 36.26562118530273 36.26475143432617 34.81999969482422 38.04801177978516 34.81999969482422 C 39.83127212524414 34.81999969482422 41.27690124511719 36.26562118530273 41.27690124511719 38.04887771606445 C 41.27690124511719 39.83213806152344 39.83127212524414 41.27775955200195 38.04801177978516 41.27775955200195 L 38.04802322387695 41.27775955200195 C 38.03511810302734 41.27791595458984 38.02233123779297 41.27799224853516 38.00944137573242 41.27799224853516 Z M 38.0223274230957 35.67068099975586 C 37.39877319335938 35.67068099975586 36.80027770996094 35.91831207275391 36.35886001586914 36.35971832275391 C 35.91138076782227 36.80720138549805 35.66305160522461 37.41608810424805 35.66996002197266 38.04887771606445 C 35.66996002197266 39.36223983764648 36.73464965820313 40.42692947387695 38.04801177978516 40.42692947387695 C 39.36138153076172 40.42692947387695 40.42607116699219 39.36223983764648 40.42607116699219 38.04887771606445 C 40.42607116699219 36.73551940917969 39.36138153076172 35.67081832885742 38.04801177978516 35.67081832885742 C 38.03943634033203 35.67072677612305 38.03089141845703 35.67068099975586 38.0223274230957 35.67068099975586 Z"/>
    </g>
  </g>
</svg>
